<svg id="Layer_1" data-name="Layer 1" xmlns="http://www.w3.org/2000/svg" viewBox="0 0 277.73 362.88">
  <defs>
    <style>
      .cls-1 {
        fill: #7cbc48;
      }
    </style>
  </defs>
  <g id="Livello_2" data-name="Livello 2">
    <g id="Livello_1-2" data-name="Livello 1-2">
      <path class="cls-1" d="M196,77.29C170.47,51.77,146.11,27.44,138.86,0c-7.25,27.44-31.62,51.77-57.15,77.29C43.42,115.56,0,158.94,0,224c0,76.59,62.29,138.89,138.86,138.89S277.73,300.58,277.73,224c0-65.05-43.41-108.43-81.72-146.7M59,256.35c-8.51-.29-39.94-54.45,18.36-112.12L116,186.37s2.37,2.22-.26,4.92c-9.21,9.44-48.44,48.78-53.32,62.39-1,2.81-2.48,2.7-3.36,2.67m79.85,71.39A47.76,47.76,0,0,1,91.11,280h0c0-12.1,4.8-22.87,11.9-31.55,8.61-10.53,35.85-40.15,35.85-40.15s26.82,30.05,35.78,40.05a46.72,46.72,0,0,1,12,31.65,47.78,47.78,0,0,1-47.76,47.76m91.41-77.45c-1,2.25-3.37,6-6.52,6.12-5.62.21-6.22-2.67-10.37-8.82C204.27,234.1,124.72,151,109.84,134.88c-13.09-14.14-1.84-24.12,3.37-29.34l25.65-25.65s57,54.05,80.69,91,15.55,68.88,10.73,79.43" transform="translate(0)"/>
    </g>
  </g>
</svg>
